<svg width="42" height="42" viewBox="0 0 42 42" fill="none" xmlns="http://www.w3.org/2000/svg">
<path fill-rule="evenodd" clip-rule="evenodd" d="M12.25 3.5C9.35051 3.5 7 5.8505 7 8.75V33.25C7 36.1495 9.3505 38.5 12.25 38.5H20V29.75L20 29.6808V29.6808C20 28.5024 19.9999 27.5181 20.105 26.7364C20.216 25.9107 20.4605 25.1629 21.0617 24.5617C21.6629 23.9605 22.4107 23.716 23.2364 23.605C24.0181 23.4999 25.0024 23.5 26.1808 23.5H26.1809H26.25H35V8.75C35 5.85051 32.6495 3.5 29.75 3.5H12.25ZM34.803 25.5H26.25C24.9843 25.5 24.1356 25.5021 23.5029 25.5872C22.899 25.6684 22.6436 25.8083 22.476 25.976C22.3083 26.1436 22.1684 26.399 22.0872 27.0029C22.0021 27.6356 22 28.4843 22 29.75V38.303C22.8572 38.0613 23.6468 37.6032 24.2877 36.9623L33.4623 27.7877C34.1032 27.1468 34.5613 26.3572 34.803 25.5Z" fill="#C6FB8E"/>
</svg>
