<svg width="42" height="42" viewBox="0 0 42 42" fill="none" xmlns="http://www.w3.org/2000/svg">
<path fill-rule="evenodd" clip-rule="evenodd" d="M18.1893 22.3965L9.19205 19.3974C6.83884 18.613 5.66223 18.2208 5.66223 17.5C5.66223 16.7792 6.83884 16.387 9.19205 15.6026L31.2052 8.26492C32.861 7.71299 33.6889 7.43702 34.1259 7.87404C34.5629 8.31105 34.287 9.13895 33.735 10.7947L26.3973 32.8079C25.6129 35.1611 25.2207 36.3377 24.5 36.3377C23.7792 36.3377 23.387 35.1611 22.6026 32.8079L19.6035 23.8107L26.9571 16.4571C27.3476 16.0666 27.3476 15.4334 26.9571 15.0429C26.5665 14.6524 25.9334 14.6524 25.5428 15.0429L18.1893 22.3965Z" fill="#C6FB8E"/>
</svg>
