<svg width="158" height="40" viewBox="0 0 158 40" fill="none" xmlns="http://www.w3.org/2000/svg">
<path d="M1.17938 13.7285C1.17938 12.2891 1.49389 11.1266 2.1229 10.2408C2.75192 9.3329 3.56064 8.62428 4.54911 8.11497C5.56002 7.60564 6.68329 7.26241 7.91885 7.08524C9.15442 6.90811 10.3788 6.81951 11.5919 6.81951C12.8723 6.81951 14.1304 6.89702 15.3659 7.05205C16.624 7.1849 17.7472 7.49492 18.7357 7.9821C19.7241 8.46927 20.5216 9.1668 21.1282 10.0747C21.7347 10.9826 22.038 12.2006 22.038 13.7285H17.7585C17.7585 12.9535 17.5563 12.3556 17.1519 11.9348C16.7475 11.5141 16.2309 11.2041 15.6018 11.0048C14.9953 10.8055 14.3326 10.6948 13.6137 10.6726C12.8948 10.6283 12.2096 10.6062 11.5581 10.6062C10.9741 10.6062 10.3226 10.6283 9.6037 10.6726C8.90729 10.6948 8.25581 10.8055 7.64927 11.0048C7.04272 11.1819 6.52601 11.4698 6.09918 11.8684C5.69482 12.267 5.49265 12.8317 5.49265 13.5624C5.49265 15.179 6.45863 16.0869 8.39061 16.2862L16.3432 16.9837C18.2078 17.1387 19.6792 17.7366 20.7575 18.7774C21.8583 19.8182 22.4087 21.2354 22.4087 23.0291C22.4087 24.6013 22.0717 25.8525 21.3978 26.7825C20.7238 27.7126 19.8477 28.4213 18.7694 28.9084C17.6911 29.3955 16.4892 29.7166 15.1638 29.8715C13.8383 30.0046 12.5354 30.0709 11.2549 30.0709C10.0193 30.0709 8.78374 29.9935 7.54817 29.8383C6.31261 29.6613 5.18937 29.3291 4.17846 28.842C3.18999 28.3326 2.38125 27.6351 1.75223 26.7493C1.14568 25.8414 0.842407 24.6456 0.842407 23.162H5.12197C5.12197 23.9149 5.32414 24.5017 5.72852 24.9224C6.13288 25.3431 6.63833 25.6532 7.24489 25.8525C7.8739 26.0518 8.54786 26.1736 9.26675 26.2178C9.9856 26.2622 10.6596 26.2843 11.2886 26.2843C11.9176 26.2843 12.6252 26.2732 13.4115 26.2511C14.1978 26.2289 14.9391 26.1293 15.6355 25.9521C16.3319 25.7528 16.916 25.465 17.3878 25.0885C17.882 24.6899 18.1291 24.1252 18.1291 23.3945C18.1291 22.553 17.882 21.9662 17.3878 21.634C16.916 21.3018 16.2533 21.0693 15.3997 20.9365L7.4134 20.2057C5.48139 20.0285 3.9538 19.3642 2.83055 18.2127C1.72977 17.0612 1.17938 15.5665 1.17938 13.7285ZM33.4658 30.4695C32.0728 30.4695 30.8149 30.2814 29.6916 29.905C28.5684 29.5285 27.6137 28.9858 26.8274 28.2773C26.0411 27.5465 25.4346 26.6497 25.0077 25.5867C24.5809 24.5238 24.3675 23.3059 24.3675 21.933C24.3675 19.0099 25.1426 16.8509 26.6926 15.4558C28.2652 14.0385 30.4779 13.3299 33.3311 13.3299C36.2289 13.3299 38.4866 14.0607 40.1041 15.5222C41.7442 16.9616 42.5641 19.1096 42.5641 21.9662V23.162H28.4786C28.4786 23.782 28.6134 24.3245 28.8829 24.7896C29.1526 25.2546 29.512 25.6421 29.9613 25.9521C30.433 26.2622 30.9723 26.5057 31.5787 26.6829C32.1854 26.8379 32.8366 26.9154 33.5331 26.9154C34.8587 26.9154 35.9143 26.705 36.7006 26.2843C37.5096 25.8635 38.0037 25.2989 38.1833 24.5903H42.2945C41.8901 26.6718 40.9352 28.1776 39.4303 29.1075C37.9252 30.0156 35.9368 30.4695 33.4658 30.4695ZM28.4449 20.4382L38.2846 20.4714C38.2846 19.8957 38.1384 19.3864 37.8463 18.9435C37.5545 18.5006 37.1726 18.1352 36.7006 17.8473C36.2289 17.5373 35.7011 17.3048 35.1168 17.1498C34.5329 16.9948 33.9487 16.9173 33.3647 16.9173C32.7581 16.9173 32.1517 16.9837 31.545 17.1166C30.9611 17.2494 30.433 17.4598 29.9613 17.7477C29.512 18.0356 29.1413 18.401 28.8492 18.8438C28.5797 19.2867 28.4449 19.8182 28.4449 20.4382ZM116.815 10.573C116.074 10.573 115.445 10.3294 114.928 9.84221C114.434 9.35503 114.187 8.74607 114.187 8.01532C114.187 7.28456 114.434 6.6756 114.928 6.18842C115.445 5.70124 116.074 5.45764 116.815 5.45764C117.557 5.45764 118.174 5.70124 118.669 6.18842C119.163 6.6756 119.41 7.28456 119.41 8.01532C119.41 8.74607 119.163 9.35503 118.669 9.84221C118.174 10.3294 117.557 10.573 116.815 10.573ZM114.625 13.496H119.073V30.0709H114.625V13.496ZM129.276 10.8387C129.276 11.9681 129.601 12.7431 130.253 13.1639C130.927 13.5624 131.938 13.7617 133.286 13.7617H134.87V17.4155H129.276V23.6934C129.276 24.402 129.422 24.9667 129.714 25.3875C130.006 25.786 130.489 25.9853 131.163 25.9853H134.87V30.0709H129.68C128.107 30.0709 126.917 29.5839 126.108 28.6094C125.299 27.6351 124.895 26.3175 124.895 24.6567V17.4155H121.323V13.7617H131.87C130.68 13.7617 129.646 13.7396 128.77 13.6953C127.894 13.6289 127.164 13.4517 126.58 13.1639C125.996 12.8538 125.558 12.3777 125.266 11.7355C124.996 11.0934 124.861 10.1854 124.861 9.0118V6.81951H129.276V10.8387ZM141.469 13.496L146.625 29.4729L152.353 13.496H156.734L149.691 33.3926C149.377 34.2783 148.759 35.0534 147.838 35.7178C146.917 36.3822 145.648 36.7143 144.03 36.7143H139.144V32.9277H142.682C143.491 32.9277 144.165 32.8389 144.704 32.6619C145.243 32.5067 145.636 32.1302 145.883 31.5325L146.557 29.6724H142.345L137.055 13.496H141.469Z" fill="white"/>
<path fill-rule="evenodd" clip-rule="evenodd" d="M48.7735 18.2573V30.0363H44.2924V17.0948C44.2924 15.2976 45.7703 13.8401 47.594 13.8401H57.7247C58.6783 13.8401 59.5856 14.2463 60.2128 14.955L60.2131 14.9553L68.914 24.7852C69.3395 25.2659 69.9552 25.5417 70.6022 25.5417H87.2365V29.9589H70.6022C68.6607 29.9589 66.814 29.1313 65.5375 27.6892L57.1887 18.2573H48.7735ZM69.312 13.8401H85.9463C87.8877 13.8401 89.7345 14.6677 91.011 16.1098L99.3598 25.5417H107.775V13.8401H112.256V26.7041C112.256 28.5013 110.778 29.9589 108.954 29.9589H98.8234C97.8697 29.9589 96.9623 29.5523 96.3353 28.8435L87.6345 19.0138C87.2089 18.5331 86.5933 18.2573 85.9463 18.2573H69.312V13.8401ZM99.7115 25.9391L99.7122 25.9399L99.7126 25.9403L99.7115 25.9391Z" fill="#C6FB8E"/>
<path d="M69.3119 19.7296V24.1468H87.2364V19.7296H69.3119Z" fill="#C6FB8E"/>
</svg>
