<svg width="158" height="40" viewBox="0 0 158 40" fill="none" xmlns="http://www.w3.org/2000/svg">
<path d="M1.17938 13.7284C1.17938 12.289 1.49389 11.1265 2.1229 10.2407C2.75192 9.33278 3.56064 8.62416 4.54911 8.11485C5.56002 7.60552 6.68329 7.26229 7.91885 7.08512C9.15442 6.90799 10.3788 6.81939 11.5919 6.81939C12.8723 6.81939 14.1304 6.8969 15.3659 7.05193C16.624 7.18478 17.7472 7.4948 18.7357 7.98197C19.7241 8.46915 20.5216 9.16668 21.1282 10.0746C21.7347 10.9825 22.038 12.2004 22.038 13.7284H17.7585C17.7585 12.9533 17.5563 12.3554 17.1519 11.9347C16.7475 11.514 16.2309 11.204 15.6018 11.0047C14.9953 10.8053 14.3326 10.6947 13.6137 10.6725C12.8948 10.6282 12.2096 10.6061 11.5581 10.6061C10.9741 10.6061 10.3226 10.6282 9.6037 10.6725C8.90729 10.6947 8.25581 10.8053 7.64927 11.0047C7.04272 11.1818 6.52601 11.4697 6.09918 11.8683C5.69482 12.2669 5.49265 12.8316 5.49265 13.5623C5.49265 15.1789 6.45863 16.0868 8.39061 16.2861L16.3432 16.9836C18.2078 17.1386 19.6792 17.7365 20.7575 18.7773C21.8583 19.8181 22.4087 21.2353 22.4087 23.029C22.4087 24.6012 22.0717 25.8524 21.3978 26.7824C20.7238 27.7125 19.8477 28.4212 18.7694 28.9083C17.6911 29.3954 16.4892 29.7165 15.1638 29.8714C13.8383 30.0044 12.5354 30.0708 11.2549 30.0708C10.0193 30.0708 8.78374 29.9934 7.54817 29.8382C6.31261 29.6612 5.18937 29.329 4.17846 28.8419C3.18999 28.3325 2.38125 27.635 1.75223 26.7492C1.14568 25.8413 0.842407 24.6455 0.842407 23.1618H5.12197C5.12197 23.9147 5.32414 24.5015 5.72852 24.9223C6.13288 25.343 6.63833 25.6531 7.24489 25.8524C7.8739 26.0516 8.54786 26.1734 9.26675 26.2177C9.9856 26.262 10.6596 26.2842 11.2886 26.2842C11.9176 26.2842 12.6252 26.2731 13.4115 26.2509C14.1978 26.2288 14.9391 26.1292 15.6355 25.952C16.3319 25.7527 16.916 25.4648 17.3878 25.0884C17.882 24.6898 18.1291 24.1251 18.1291 23.3943C18.1291 22.5529 17.882 21.966 17.3878 21.6339C16.916 21.3017 16.2533 21.0692 15.3997 20.9363L7.4134 20.2056C5.48139 20.0284 3.9538 19.3641 2.83055 18.2126C1.72977 17.0611 1.17938 15.5664 1.17938 13.7284ZM33.4658 30.4694C32.0728 30.4694 30.8149 30.2813 29.6916 29.9049C28.5684 29.5284 27.6137 28.9857 26.8274 28.2771C26.0411 27.5464 25.4346 26.6495 25.0077 25.5866C24.5809 24.5237 24.3675 23.3058 24.3675 21.9328C24.3675 19.0098 25.1426 16.8507 26.6926 15.4556C28.2652 14.0384 30.4779 13.3298 33.3311 13.3298C36.2289 13.3298 38.4866 14.0606 40.1041 15.5221C41.7442 16.9615 42.5641 19.1094 42.5641 21.966V23.1618H28.4786C28.4786 23.7819 28.6134 24.3244 28.8829 24.7894C29.1526 25.2545 29.512 25.642 29.9613 25.952C30.433 26.262 30.9723 26.5056 31.5787 26.6828C32.1854 26.8378 32.8366 26.9153 33.5331 26.9153C34.8587 26.9153 35.9143 26.7049 36.7006 26.2842C37.5096 25.8634 38.0037 25.2987 38.1833 24.5901H42.2945C41.8901 26.6717 40.9352 28.1775 39.4303 29.1074C37.9252 30.0155 35.9368 30.4694 33.4658 30.4694ZM28.4449 20.4381L38.2846 20.4713C38.2846 19.8956 38.1384 19.3862 37.8463 18.9434C37.5545 18.5005 37.1726 18.1351 36.7006 17.8472C36.2289 17.5372 35.7011 17.3047 35.1168 17.1497C34.5329 16.9947 33.9487 16.9172 33.3647 16.9172C32.7581 16.9172 32.1517 16.9836 31.545 17.1165C30.9611 17.2493 30.433 17.4597 29.9613 17.7476C29.512 18.0354 29.1413 18.4008 28.8492 18.8437C28.5797 19.2866 28.4449 19.8181 28.4449 20.4381ZM116.815 10.5728C116.074 10.5728 115.445 10.3293 114.928 9.84209C114.434 9.35491 114.187 8.74594 114.187 8.01519C114.187 7.28444 114.434 6.67548 114.928 6.1883C115.445 5.70112 116.074 5.45752 116.815 5.45752C117.557 5.45752 118.174 5.70112 118.669 6.1883C119.163 6.67548 119.41 7.28444 119.41 8.01519C119.41 8.74594 119.163 9.35491 118.669 9.84209C118.174 10.3293 117.557 10.5728 116.815 10.5728ZM114.625 13.4959H119.073V30.0708H114.625V13.4959ZM129.276 10.8386C129.276 11.9679 129.601 12.743 130.253 13.1637C130.927 13.5623 131.938 13.7616 133.286 13.7616H134.87V17.4154H129.276V23.6933C129.276 24.4019 129.422 24.9666 129.714 25.3873C130.006 25.7859 130.489 25.9852 131.163 25.9852H134.87V30.0708H129.68C128.107 30.0708 126.917 29.5837 126.108 28.6093C125.299 27.635 124.895 26.3174 124.895 24.6566V17.4154H121.323V13.7616H131.87C130.68 13.7616 129.646 13.7395 128.77 13.6952C127.894 13.6288 127.164 13.4516 126.58 13.1637C125.996 12.8537 125.558 12.3776 125.266 11.7354C124.996 11.0932 124.861 10.1853 124.861 9.01168V6.81939H129.276V10.8386ZM141.469 13.4959L146.625 29.4728L152.353 13.4959H156.734L149.691 33.3925C149.377 34.2782 148.759 35.0532 147.838 35.7176C146.917 36.382 145.648 36.7142 144.03 36.7142H139.144V32.9276H142.682C143.491 32.9276 144.165 32.8388 144.704 32.6617C145.243 32.5066 145.636 32.1301 145.883 31.5324L146.557 29.6722H142.345L137.055 13.4959H141.469Z" fill="white"/>
<path fill-rule="evenodd" clip-rule="evenodd" d="M48.7735 18.2573V30.0363H44.2924V17.0948C44.2924 15.2976 45.7703 13.8401 47.594 13.8401H57.7247C58.6783 13.8401 59.5856 14.2463 60.2128 14.955L60.2131 14.9553L68.914 24.7852C69.3395 25.2659 69.9552 25.5417 70.6022 25.5417H87.2365V29.9589H70.6022C68.6607 29.9589 66.814 29.1313 65.5375 27.6892L57.1887 18.2573H48.7735ZM69.312 13.8401H85.9463C87.8877 13.8401 89.7345 14.6677 91.011 16.1098L99.3598 25.5417H107.775V13.8401H112.256V26.7041C112.256 28.5013 110.778 29.9589 108.954 29.9589H98.8234C97.8697 29.9589 96.9623 29.5523 96.3353 28.8435L87.6345 19.0138C87.2089 18.5331 86.5933 18.2573 85.9463 18.2573H69.312V13.8401ZM99.7115 25.9391L99.7122 25.9399L99.7126 25.9403L99.7115 25.9391Z" fill="#C6FB8E"/>
<path d="M69.3119 19.7297V24.1469H87.2364V19.7297H69.3119Z" fill="#C6FB8E"/>
</svg>
