<svg width="314" height="75" viewBox="0 0 314 75" fill="none" xmlns="http://www.w3.org/2000/svg">
<path fill-rule="evenodd" clip-rule="evenodd" d="M20.7033 20.4546V75H0V15.0718C0 6.74939 6.82837 0 15.2541 0H62.0591C66.4647 0 70.6563 1.88111 73.5541 5.16285L73.5555 5.16441L113.755 50.6836C115.721 52.9097 118.565 54.187 121.554 54.187H198.407V74.6417H121.554C112.585 74.6417 104.052 70.8093 98.1548 64.1314L59.5826 20.4546H20.7033ZM115.593 0H192.446C201.415 0 209.948 3.83237 215.845 10.5103L254.417 54.187H293.297V6.32675e-05H314V59.5698C314 67.8922 307.172 74.6417 298.746 74.6417H251.94C247.533 74.6417 243.341 72.7588 240.444 69.4767L200.245 23.9582C198.279 21.732 195.435 20.4546 192.446 20.4546H115.593V0ZM256.043 56.0272L256.046 56.0309L256.048 56.0329L256.043 56.0272Z" fill="#C6FB8E"/>
</svg>
